<?xml version="1.0" standalone="no"?>
<!DOCTYPE svg PUBLIC "-//W3C//DTD SVG 1.1//EN"
"http://www.w3.org/Graphics/SVG/1.1/DTD/svg11.dtd">
<svg height="600" version="1.1" width="800" xmlns="http://www.w3.org/2000/svg"><g><rect fill="#f9f9f9" height="600" width="800" x="0" y="0" /><g transform="translate(40 40)"><g transform="translate(62 0)"><text fill="#333" font-family="Monaco" font-size="16" x="0" y="0">Income vs. health</text></g><g transform="translate(0 20)"><g transform="translate(62 0)"><g class="axis bottom"><text dy="1em" fill="#666" font-family="Monaco" text-anchor="middle" transform="" x="329.0" y="486.0">Log GDP per capita</text><g class="tick"><line stroke="#eee" stroke-width="1" x1="0.0" x2="0.0" y1="0" y2="460.0" /><text dy="1em" fill="#9c9c9c" font-family="Monaco" text-anchor="middle" x="0.0" y="464.0">6.39526159812</text></g><g class="tick"><line stroke="#eee" stroke-width="1" x1="164.5" x2="164.5" y1="0" y2="460.0" /><text dy="1em" fill="#9c9c9c" font-family="Monaco" text-anchor="middle" x="164.5" y="464.0">7.7457409904</text></g><g class="tick"><line stroke="#eee" stroke-width="1" x1="329.0" x2="329.0" y1="0" y2="460.0" /><text dy="1em" fill="#9c9c9c" font-family="Monaco" text-anchor="middle" x="329.0" y="464.0">9.09622038269</text></g><g class="tick"><line stroke="#eee" stroke-width="1" x1="493.5" x2="493.5" y1="0" y2="460.0" /><text dy="1em" fill="#9c9c9c" font-family="Monaco" text-anchor="middle" x="493.5" y="464.0">10.446699775</text></g><g class="tick"><line stroke="#eee" stroke-width="1" x1="658.0" x2="658.0" y1="0" y2="460.0" /><text dy="1em" fill="#9c9c9c" font-family="Monaco" text-anchor="middle" x="658.0" y="464.0">11.7971791673</text></g></g><g class="axis left"><text dy="" fill="#666" font-family="Monaco" text-anchor="middle" transform="rotate(270 -40 228)" x="-40" y="228.0">Life expectancy in years</text><g class="tick"><line stroke="#eee" stroke-width="1" x1="-4" x2="658.0" y1="456.0" y2="456.0" /><text dy="0.32em" fill="#9c9c9c" font-family="Monaco" text-anchor="end" x="-8" y="456.0">48.5</text></g><g class="tick"><line stroke="#eee" stroke-width="1" x1="-4" x2="658.0" y1="342.0" y2="342.0" /><text dy="0.32em" fill="#9c9c9c" font-family="Monaco" text-anchor="end" x="-8" y="342.0">57.4</text></g><g class="tick"><line stroke="#eee" stroke-width="1" x1="-4" x2="658.0" y1="228.0" y2="228.0" /><text dy="0.32em" fill="#9c9c9c" font-family="Monaco" text-anchor="end" x="-8" y="228.0">66.3</text></g><g class="tick"><line stroke="#eee" stroke-width="1" x1="-4" x2="658.0" y1="114.0" y2="114.0" /><text dy="0.32em" fill="#9c9c9c" font-family="Monaco" text-anchor="end" x="-8" y="114.0">75.2</text></g><g class="tick"><line stroke="#eee" stroke-width="1" x1="-4" x2="658.0" y1="0.0" y2="0.0" /><text dy="0.32em" fill="#9c9c9c" font-family="Monaco" text-anchor="end" x="-8" y="0.0">84.1</text></g></g><g><g class="series dots"><circle cx="142.201749462" cy="339.053932584" fill="rgba(0,0,0,0.5)" r="5.7032062912" /><circle cx="350.22806072" cy="103.752808989" fill="rgba(0,0,0,0.5)" r="1.7019632781" /><circle cx="378.859145982" cy="97.3483146067" fill="rgba(0,0,0,0.5)" r="6.29813615286" /><circle cx="530.305973255" cy="0.0" fill="rgba(0,0,0,0.5)" r="0.265467512137" /><circle cx="309.712203418" cy="295.887640449" fill="rgba(0,0,0,0.5)" r="5.00219691736" /><circle cx="433.559031759" cy="114.0" fill="rgba(0,0,0,0.5)" r="0.303014851121" /><circle cx="409.976104425" cy="101.191011236" fill="rgba(0,0,0,0.5)" r="6.58913916988" /><circle cx="312.056881397" cy="124.247191011" fill="rgba(0,0,0,0.5)" r="1.73715629694" /><circle cx="523.527896714" cy="29.4606741573" fill="rgba(0,0,0,0.5)" r="4.89581178151" /><circle cx="524.478057335" cy="39.7078651685" fill="rgba(0,0,0,0.5)" r="2.92311238238" /><circle cx="407.43552426" cy="143.460674157" fill="rgba(0,0,0,0.5)" r="3.12313432308" /><circle cx="443.38857688" cy="151.146067416" fill="rgba(0,0,0,0.5)" r="0.62291171124" /><circle cx="523.754404363" cy="62.7640449438" fill="rgba(0,0,0,0.5)" r="1.17355741232" /><circle cx="202.614241529" cy="179.325842697" fill="rgba(0,0,0,0.5)" r="12.68840581" /><circle cx="374.709008121" cy="106.314606742" fill="rgba(0,0,0,0.5)" r="0.533118185771" /><circle cx="410.473726475" cy="175.483146067" fill="rgba(0,0,0,0.5)" r="3.08152981488" /><circle cx="515.482086515" cy="47.393258427" fill="rgba(0,0,0,0.5)" r="3.36142707789" /><circle cx="323.118922578" cy="180.606741573" fill="rgba(0,0,0,0.5)" r="0.599405538847" /><circle cx="136.037016262" cy="238.247191011" fill="rgba(0,0,0,0.5)" r="3.2984585794" /><circle cx="315.460874193" cy="178.04494382" fill="rgba(0,0,0,0.5)" r="0.880244284276" /><circle cx="286.524192827" cy="151.146067416" fill="rgba(0,0,0,0.5)" r="3.27485953897" /><circle cx="340.849415104" cy="79.4157303371" fill="rgba(0,0,0,0.5)" r="1.95202868831" /><circle cx="408.932225868" cy="226.719101124" fill="rgba(0,0,0,0.5)" r="1.50415590947" /><circle cx="395.819470805" cy="108.876404494" fill="rgba(0,0,0,0.5)" r="14.4169181173" /><circle cx="585.045986794" cy="69.1685393258" fill="rgba(0,0,0,0.5)" r="0.650529015494" /><circle cx="402.943467005" cy="117.842696629" fill="rgba(0,0,0,0.5)" r="2.67390856239" /><circle cx="123.719807646" cy="272.831460674" fill="rgba(0,0,0,0.5)" r="4.25506404182" /><circle cx="31.692008771" cy="303.573033708" fill="rgba(0,0,0,0.5)" r="3.34348934498" /><circle cx="206.631939674" cy="201.101123596" fill="rgba(0,0,0,0.5)" r="3.94688472089" /><circle cx="191.990983145" cy="315.101123596" fill="rgba(0,0,0,0.5)" r="4.83158141813" /><circle cx="521.402641866" cy="30.7415730337" fill="rgba(0,0,0,0.5)" r="5.99499182652" /><circle cx="290.68980802" cy="121.685393258" fill="rgba(0,0,0,0.5)" r="0.7214582455" /><circle cx="0.0" cy="388.112359551" fill="rgba(0,0,0,0.5)" r="2.21365625154" /><circle cx="157.967691097" cy="338.157303371" fill="rgba(0,0,0,0.5)" r="3.74666144721" /><circle cx="441.489440085" cy="61.4831460674" fill="rgba(0,0,0,0.5)" r="4.23652463701" /><circle cx="377.949035674" cy="92.2247191011" fill="rgba(0,0,0,0.5)" r="37.0951336835" /><circle cx="372.598773397" cy="106.314606742" fill="rgba(0,0,0,0.5)" r="6.94468890592" /><circle cx="109.520022066" cy="256.179775281" fill="rgba(0,0,0,0.5)" r="0.887960584711" /><circle cx="36.608029155" cy="330.471910112" fill="rgba(0,0,0,0.5)" r="8.79015437862" /><circle cx="285.064224128" cy="284.359550562" fill="rgba(0,0,0,0.5)" r="2.1494952896" /><circle cx="385.029107422" cy="52.5168539326" fill="rgba(0,0,0,0.5)" r="2.19268100735" /><circle cx="214.709810223" cy="304.469662921" fill="rgba(0,0,0,0.5)" r="4.76461498969" /><circle cx="428.905388609" cy="78.1348314607" fill="rgba(0,0,0,0.5)" r="2.05920300116" /><circle cx="434.951473963" cy="71.7303370787" fill="rgba(0,0,0,0.5)" r="3.37484251484" /><circle cx="475.894177778" cy="19.2134831461" fill="rgba(0,0,0,0.5)" r="1.07949062062" /><circle cx="474.413553986" cy="70.4494382022" fill="rgba(0,0,0,0.5)" r="3.24702725581" /><circle cx="521.966850965" cy="51.2359550562" fill="rgba(0,0,0,0.5)" r="2.38098320028" /><circle cx="201.763511362" cy="249.391011236" fill="rgba(0,0,0,0.5)" r="0.942263763497" /><circle cx="348.878654708" cy="121.685393258" fill="rgba(0,0,0,0.5)" r="0.269592284756" /><circle cx="373.322070574" cy="131.93258427" fill="rgba(0,0,0,0.5)" r="3.24474821828" /><circle cx="354.466092967" cy="114.0" fill="rgba(0,0,0,0.5)" r="4.01800485316" /><circle cx="354.853191027" cy="163.95505618" fill="rgba(0,0,0,0.5)" r="9.56598578297" /><circle cx="312.260692727" cy="128.08988764" fill="rgba(0,0,0,0.5)" r="2.47519352779" /><circle cx="481.056670716" cy="300.626966292" fill="rgba(0,0,0,0.5)" r="0.919271450661" /><circle cx="77.2054516403" cy="271.550561798" fill="rgba(0,0,0,0.5)" r="2.28643631007" /><circle cx="463.036285337" cy="93.5056179775" fill="rgba(0,0,0,0.5)" r="1.14566923673" /><circle cx="113.42865464" cy="262.584269663" fill="rgba(0,0,0,0.5)" r="9.96949095992" /><circle cx="314.572650667" cy="228.0" fill="rgba(0,0,0,0.5)" r="0.944534276773" /><circle cx="508.438708594" cy="42.2696629213" fill="rgba(0,0,0,0.5)" r="2.34594479901" /><circle cx="504.223171137" cy="28.1797752809" fill="rgba(0,0,0,0.5)" r="8.02467102129" /><circle cx="418.669037776" cy="301.907865169" fill="rgba(0,0,0,0.5)" r="1.31350371145" /><circle cx="122.981123775" cy="243.370786517" fill="rgba(0,0,0,0.5)" r="1.41100106308" /><circle cx="307.43564273" cy="138.337078652" fill="rgba(0,0,0,0.5)" r="1.99995299945" /><circle cx="523.519601856" cy="38.4269662921" fill="rgba(0,0,0,0.5)" r="8.98268027929" /><circle cx="234.266766779" cy="238.247191011" fill="rgba(0,0,0,0.5)" r="5.23544582629" /><circle cx="456.590178155" cy="55.0786516854" fill="rgba(0,0,0,0.5)" r="3.30977597429" /><circle cx="360.906100989" cy="158.831460674" fill="rgba(0,0,0,0.5)" r="0.326840939908" /><circle cx="304.215408229" cy="140.898876404" fill="rgba(0,0,0,0.5)" r="4.04263490808" /><circle cx="87.1460756914" cy="298.449438202" fill="rgba(0,0,0,0.5)" r="3.55085764288" /><circle cx="102.187129968" cy="393.235955056" fill="rgba(0,0,0,0.5)" r="1.35805927706" /><circle cx="296.210061896" cy="252.337078652" fill="rgba(0,0,0,0.5)" r="0.87583388836" /><circle cx="127.775640959" cy="240.808988764" fill="rgba(0,0,0,0.5)" r="3.27277664988" /><circle cx="239.245179844" cy="149.865168539" fill="rgba(0,0,0,0.5)" r="2.84166500489" /><circle cx="450.551279888" cy="101.191011236" fill="rgba(0,0,0,0.5)" r="3.13927109374" /><circle cx="518.233125226" cy="16.6516853933" fill="rgba(0,0,0,0.5)" r="0.573955573194" /><circle cx="278.692512589" cy="221.595505618" fill="rgba(0,0,0,0.5)" r="36.2084317114" /><circle cx="348.890251661" cy="169.078651685" fill="rgba(0,0,0,0.5)" r="16.0487948146" /><circle cx="396.856346531" cy="71.7303370787" fill="rgba(0,0,0,0.5)" r="8.89433932341" /><circle cx="389.380784246" cy="153.707865169" fill="rgba(0,0,0,0.5)" r="6.03517978191" /><circle cx="533.356028256" cy="47.393258427" fill="rgba(0,0,0,0.5)" r="2.1652863552" /><circle cx="483.01180704" cy="21.7752808989" fill="rgba(0,0,0,0.5)" r="2.83972463454" /><circle cx="489.422190071" cy="25.6179775281" fill="rgba(0,0,0,0.5)" r="7.73289628794" /><circle cx="324.614224302" cy="110.157303371" fill="rgba(0,0,0,0.5)" r="1.67132731684" /><circle cx="499.476459358" cy="7.68539325843" fill="rgba(0,0,0,0.5)" r="11.2504880339" /><circle cx="362.565374187" cy="74.2921348315" fill="rgba(0,0,0,0.5)" r="2.75582056745" /><circle cx="446.809948066" cy="203.662921348" fill="rgba(0,0,0,0.5)" r="4.19824082206" /><circle cx="192.033022351" cy="223.773033708" fill="rgba(0,0,0,0.5)" r="6.78603728254" /><circle cx="135.636987669" cy="277.95505618" fill="rgba(0,0,0,0.5)" r="0.335295392154" /><circle cx="600.13911711" cy="43.5505617978" fill="rgba(0,0,0,0.5)" r="1.97284439326" /><circle cx="205.808905482" cy="193.415730337" fill="rgba(0,0,0,0.5)" r="2.43720372558" /><circle cx="263.527703187" cy="226.719101124" fill="rgba(0,0,0,0.5)" r="2.60806882578" /><circle cx="445.840685239" cy="107.595505618" fill="rgba(0,0,0,0.5)" r="1.40374605966" /><circle cx="407.893613306" cy="71.7303370787" fill="rgba(0,0,0,0.5)" r="2.41883091596" /><circle cx="178.72190974" cy="456.0" fill="rgba(0,0,0,0.5)" r="1.46117144785" /><circle cx="57.1996337207" cy="258.741573034" fill="rgba(0,0,0,0.5)" r="2.12213053321" /><circle cx="409.391788116" cy="101.191011236" fill="rgba(0,0,0,0.5)" r="2.50568114492" /><circle cx="462.366617673" cy="111.438202247" fill="rgba(0,0,0,0.5)" r="1.69658627838" /><circle cx="608.238113345" cy="38.4269662921" fill="rgba(0,0,0,0.5)" r="0.753067062087" /><circle cx="370.538740123" cy="90.9438202247" fill="rgba(0,0,0,0.5)" r="1.44168408467" /><circle cx="103.411347277" cy="248.494382022" fill="rgba(0,0,0,0.5)" r="4.92294525665" /><circle cx="35.0929773228" cy="305.878651685" fill="rgba(0,0,0,0.5)" r="4.14912424495" /><circle cx="451.153796847" cy="115.280898876" fill="rgba(0,0,0,0.5)" r="5.50735934909" /><circle cx="387.38511449" cy="58.9213483146" fill="rgba(0,0,0,0.5)" r="0.603039799682" /><circle cx="125.90935606" cy="339.438202247" fill="rgba(0,0,0,0.5)" r="4.19519892258" /><circle cx="477.792468781" cy="25.6179775281" fill="rgba(0,0,0,0.5)" r="0.647047138932" /><circle cx="220.501578305" cy="243.370786517" fill="rgba(0,0,0,0.5)" r="0.230202085134" /><circle cx="227.484295659" cy="235.685393258" fill="rgba(0,0,0,0.5)" r="2.01682026963" /><circle cx="416.844032365" cy="130.651685393" fill="rgba(0,0,0,0.5)" r="1.12836696159" /><circle cx="406.45632705" cy="122.966292135" fill="rgba(0,0,0,0.5)" r="11.2701918351" /><circle cx="215.370964065" cy="219.033707865" fill="rgba(0,0,0,0.5)" r="0.323202722761" /><circle cx="255.909170597" cy="146.02247191" fill="rgba(0,0,0,0.5)" r="2.01715071326" /><circle cx="363.25785206" cy="240.808988764" fill="rgba(0,0,0,0.5)" r="1.72021335886" /><circle cx="390.926190343" cy="106.314606742" fill="rgba(0,0,0,0.5)" r="0.7910632086" /><circle cx="304.88294571" cy="120.404494382" fill="rgba(0,0,0,0.5)" r="5.86323383467" /><circle cx="82.1736058137" cy="354.808988764" fill="rgba(0,0,0,0.5)" r="5.28941045864" /><circle cx="231.653586067" cy="207.505617978" fill="rgba(0,0,0,0.5)" r="7.34146810931" /><circle cx="343.38705829" cy="295.887640449" fill="rgba(0,0,0,0.5)" r="1.5680656874" /><circle cx="166.604891365" cy="165.235955056" fill="rgba(0,0,0,0.5)" r="5.33982209441" /><circle cx="528.214255083" cy="44.8314606742" fill="rgba(0,0,0,0.5)" r="4.11399185707" /><circle cx="492.631712696" cy="44.8314606742" fill="rgba(0,0,0,0.5)" r="2.1280333644" /><circle cx="251.24315844" cy="93.5056179775" fill="rgba(0,0,0,0.5)" r="2.46617760918" /><circle cx="55.2773119156" cy="280.516853933" fill="rgba(0,0,0,0.5)" r="4.46084296966" /><circle cx="275.005504874" cy="291.660674157" fill="rgba(0,0,0,0.5)" r="13.4982206976" /><circle cx="102.538163632" cy="162.674157303" fill="rgba(0,0,0,0.5)" r="5.01550765128" /><circle cx="569.591070547" cy="32.0224719101" fill="rgba(0,0,0,0.5)" r="2.28275425747" /><circle cx="534.543869462" cy="107.595505618" fill="rgba(0,0,0,0.5)" r="2.11908966304" /><circle cx="252.0419062" cy="225.438202247" fill="rgba(0,0,0,0.5)" r="13.7449945071" /><circle cx="430.250692961" cy="75.5730337079" fill="rgba(0,0,0,0.5)" r="1.98220609423" /><circle cx="175.443071949" cy="301.011235955" fill="rgba(0,0,0,0.5)" r="2.76031175775" /><circle cx="319.00967832" cy="130.651685393" fill="rgba(0,0,0,0.5)" r="2.57664956872" /><circle cx="364.120508237" cy="84.5393258427" fill="rgba(0,0,0,0.5)" r="5.60148819511" /><circle cx="297.277628738" cy="178.04494382" fill="rgba(0,0,0,0.5)" r="10.0349088187" /><circle cx="453.470628651" cy="87.1011235955" fill="rgba(0,0,0,0.5)" r="6.21383891005" /><circle cx="461.320610713" cy="55.0786516854" fill="rgba(0,0,0,0.5)" r="3.21711097104" /><circle cx="658.0" cy="26.8988764045" fill="rgba(0,0,0,0.5)" r="1.49511036382" /><circle cx="422.37864256" cy="93.5056179775" fill="rgba(0,0,0,0.5)" r="4.41716243758" /><circle cx="444.557370361" cy="140.514606742" fill="rgba(0,0,0,0.5)" r="11.9773502078" /><circle cx="115.730742913" cy="225.053932584" fill="rgba(0,0,0,0.5)" r="3.40729599536" /><circle cx="271.35691081" cy="152.426966292" fill="rgba(0,0,0,0.5)" r="0.439577069466" /><circle cx="196.368305438" cy="195.97752809" fill="rgba(0,0,0,0.5)" r="0.436284310972" /><circle cx="544.815284913" cy="76.8539325843" fill="rgba(0,0,0,0.5)" r="5.61608155211" /><circle cx="161.258533216" cy="230.561797753" fill="rgba(0,0,0,0.5)" r="3.88963661542" /><circle cx="373.993923929" cy="76.8539325843" fill="rgba(0,0,0,0.5)" r="2.97505882295" /><circle cx="457.800791228" cy="133.213483146" fill="rgba(0,0,0,0.5)" r="0.310597810681" /><circle cx="151.927299567" cy="327.91011236" fill="rgba(0,0,0,0.5)" r="2.54031179189" /><circle cx="597.397642747" cy="25.6179775281" fill="rgba(0,0,0,0.5)" r="2.36722200057" /><circle cx="464.804272907" cy="98.6292134831" fill="rgba(0,0,0,0.5)" r="2.32943297822" /><circle cx="470.6867651" cy="49.9550561798" fill="rgba(0,0,0,0.5)" r="1.43788942551" /><circle cx="149.686807222" cy="256.179775281" fill="rgba(0,0,0,0.5)" r="0.763931279632" /><circle cx="4.98060373611" cy="325.348314607" fill="rgba(0,0,0,0.5)" r="3.28437269505" /><circle cx="370.169269319" cy="261.047191011" fill="rgba(0,0,0,0.5)" r="7.38176171385" /><circle cx="494.252783764" cy="43.5505617978" fill="rgba(0,0,0,0.5)" r="7.09178672832" /><circle cx="198.140098087" cy="334.314606742" fill="rgba(0,0,0,0.5)" r="3.51280685492" /><circle cx="488.253277309" cy="30.7415730337" fill="rgba(0,0,0,0.5)" r="6.79129582628" /><circle cx="350.273931026" cy="97.3483146067" fill="rgba(0,0,0,0.5)" r="4.55137451766" /><circle cx="342.864247718" cy="122.966292135" fill="rgba(0,0,0,0.5)" r="0.430115100874" /><circle cx="348.087460352" cy="143.460674157" fill="rgba(0,0,0,0.5)" r="0.330850419374" /><circle cx="230.525014557" cy="187.011235955" fill="rgba(0,0,0,0.5)" r="6.34309719301" /><circle cx="408.428253215" cy="174.202247191" fill="rgba(0,0,0,0.5)" r="0.736868373592" /><circle cx="282.591370282" cy="417.573033708" fill="rgba(0,0,0,0.5)" r="1.13444700185" /><circle cx="525.817661199" cy="26.8988764045" fill="rgba(0,0,0,0.5)" r="3.1272073804" /><circle cx="553.004976019" cy="15.3707865169" fill="rgba(0,0,0,0.5)" r="2.88074000909" /><circle cx="249.288758877" cy="177.276404494" fill="rgba(0,0,0,0.5)" r="4.30144312993" /><circle cx="177.969421806" cy="167.797752809" fill="rgba(0,0,0,0.5)" r="2.9123624431" /><circle cx="177.44937655" cy="264.761797753" fill="rgba(0,0,0,0.5)" r="7.31234709242" /><circle cx="388.261196695" cy="115.280898876" fill="rgba(0,0,0,0.5)" r="8.24374666035" /><circle cx="151.985706951" cy="149.865168539" fill="rgba(0,0,0,0.5)" r="1.08846910843" /><circle cx="106.249233277" cy="254.514606742" fill="rgba(0,0,0,0.5)" r="2.70269828135" /><circle cx="260.138975866" cy="174.202247191" fill="rgba(0,0,0,0.5)" r="0.325837382754" /><circle cx="477.179167716" cy="162.674157303" fill="rgba(0,0,0,0.5)" r="1.16622810805" /><circle cx="355.897726625" cy="87.1011235955" fill="rgba(0,0,0,0.5)" r="3.35463172345" /><circle cx="423.370476981" cy="97.3483146067" fill="rgba(0,0,0,0.5)" r="8.86937596452" /><circle cx="399.119157981" cy="207.505617978" fill="rgba(0,0,0,0.5)" r="2.31808153437" /><circle cx="125.619680306" cy="298.449438202" fill="rgba(0,0,0,0.5)" r="6.24759017542" /><circle cx="322.371540052" cy="153.707865169" fill="rgba(0,0,0,0.5)" r="6.6950552649" /><circle cx="562.663667454" cy="96.0674157303" fill="rgba(0,0,0,0.5)" r="3.02604742197" /><circle cx="506.23451093" cy="34.5842696629" fill="rgba(0,0,0,0.5)" r="8.04461372597" /><circle cx="546.852708188" cy="64.0449438202" fill="rgba(0,0,0,0.5)" r="17.9380498104" /><circle cx="429.970898881" cy="87.1011235955" fill="rgba(0,0,0,0.5)" r="1.85244568072" /><circle cx="272.23040754" cy="179.325842697" fill="rgba(0,0,0,0.5)" r="5.46749375857" /><circle cx="192.62005287" cy="244.651685393" fill="rgba(0,0,0,0.5)" r="0.514443388528" /><circle cx="398.256192586" cy="106.314606742" fill="rgba(0,0,0,0.5)" r="5.57746205724" /><circle cx="272.773179122" cy="97.3483146067" fill="rgba(0,0,0,0.5)" r="9.6668299354" /><circle cx="240.635024064" cy="114.0" fill="rgba(0,0,0,0.5)" r="2.16066332407" /><circle cx="227.798073774" cy="211.348314607" fill="rgba(0,0,0,0.5)" r="5.17998214283" /><circle cx="232.319704837" cy="322.017977528" fill="rgba(0,0,0,0.5)" r="4.02638386148" /><circle cx="134.091257834" cy="308.568539326" fill="rgba(0,0,0,0.5)" r="3.95003177202" /></g></g></g></g></g></g></svg>